<svg xmlns="http://www.w3.org/2000/svg" width="1024" height="1024" viewBox="0 0 1024 1024"><defs><filter id="dgb4" x="-60%" y="-60%" width="220%" height="220%"><feGaussianBlur stdDeviation="4"/></filter><filter id="dgb8" x="-60%" y="-60%" width="220%" height="220%"><feGaussianBlur stdDeviation="8"/></filter><filter id="dgb14" x="-60%" y="-60%" width="220%" height="220%"><feGaussianBlur stdDeviation="14"/></filter><filter id="dgb24" x="-60%" y="-60%" width="220%" height="220%"><feGaussianBlur stdDeviation="24"/></filter><filter id="dgb44" x="-60%" y="-60%" width="220%" height="220%"><feGaussianBlur stdDeviation="44"/></filter><linearGradient id="dgbg" x1="0" y1="0" x2="0" y2="1"><stop offset="0" stop-color="#12302A" stop-opacity="1"/><stop offset="1" stop-color="#071512" stop-opacity="1"/></linearGradient></defs>
  <rect width="1024" height="1024" fill="url(#dgbg)"/>
  <ellipse cx="512" cy="110" rx="560" ry="290" fill="#fff" opacity="0.05" filter="url(#dgb44)"/><g fill="none" stroke="#fff" stroke-width="16" stroke-linecap="round" opacity=".85"><path d="M236 236l-18-58"/></g><g fill="none" stroke="#fff" stroke-width="16" stroke-linecap="round" opacity=".85"><path d="M170 300l-44-40"/></g><g fill="none" stroke="#fff" stroke-width="16" stroke-linecap="round" opacity=".85"><path d="M150 400h-60"/></g><defs><filter id="dcb4" x="-60%" y="-60%" width="220%" height="220%"><feGaussianBlur stdDeviation="4"/></filter><filter id="dcb8" x="-60%" y="-60%" width="220%" height="220%"><feGaussianBlur stdDeviation="8"/></filter><filter id="dcb14" x="-60%" y="-60%" width="220%" height="220%"><feGaussianBlur stdDeviation="14"/></filter><filter id="dcb24" x="-60%" y="-60%" width="220%" height="220%"><feGaussianBlur stdDeviation="24"/></filter><filter id="dcb44" x="-60%" y="-60%" width="220%" height="220%"><feGaussianBlur stdDeviation="44"/></filter><radialGradient id="dcbody" cx="0.36" cy="0.26" r="0.85"><stop offset="0" stop-color="#FFFFFF" stop-opacity="1"/><stop offset="0.5" stop-color="#F6F2EC" stop-opacity="1"/><stop offset="1" stop-color="#D3C8B8" stop-opacity="1"/></radialGradient>
  <linearGradient id="dcrim" x1="0" y1="0" x2="0" y2="1"><stop offset="0.5" stop-color="#7A5A2A" stop-opacity="0"/><stop offset="1" stop-color="#7A5A2A" stop-opacity="0.3"/></linearGradient>
  <clipPath id="dcclip"><path d="M512 210C712 210 830 420 830 610C830 800 700 930 512 930C324 930 194 800 194 610C194 420 312 210 512 210Z"/></clipPath></defs>
  <ellipse cx="700" cy="1000" rx="420" ry="90" fill="#000" opacity=".35" filter="url(#dcb44)"/>
  <g transform="translate(800 1080) rotate(-20) scale(1.22) translate(-512 -850)">
    <path d="M512 210C712 210 830 420 830 610C830 800 700 930 512 930C324 930 194 800 194 610C194 420 312 210 512 210Z" fill="url(#dcbody)"/>
    <path d="M512 210C712 210 830 420 830 610C830 800 700 930 512 930C324 930 194 800 194 610C194 420 312 210 512 210Z" fill="url(#dcrim)" opacity=".6"/>
    <g clip-path="url(#dcclip)">
      <path d="M512 210C712 210 830 420 830 610C830 800 700 930 512 930C324 930 194 800 194 610C194 420 312 210 512 210Z" fill="none" stroke="#B9A88F" stroke-width="160" opacity=".32" filter="url(#dcb44)" transform="translate(-30 -20)"/>
      <path d="M512 210C712 210 830 420 830 610C830 800 700 930 512 930C324 930 194 800 194 610C194 420 312 210 512 210Z" fill="none" stroke="#fff" stroke-width="30" opacity=".45" filter="url(#dcb14)" transform="translate(14 10)"/>
    </g>
    <ellipse cx="398" cy="372" rx="84" ry="42" transform="rotate(-38 398 372)" fill="#fff" filter="url(#dcb14)"/>
    <g fill="#1B1B1F"><ellipse cx="328" cy="522" rx="31" ry="60"/><ellipse cx="446" cy="522" rx="31" ry="60"/></g>
    <g fill="#fff"><circle cx="322" cy="494" r="10"/><circle cx="440" cy="494" r="10"/></g>
    <g fill="#FF7E95" opacity=".5" filter="url(#dcb4)"><ellipse cx="270" cy="638" rx="34" ry="16"/><ellipse cx="494" cy="634" rx="32" ry="16"/></g>
    <ellipse cx="387" cy="622" rx="15" ry="19" fill="#1B1B1F"/>
  </g></svg>
